# xmcd
#
# Track frame offsets: 
#        150
#        17977
#        39082
#
# Disc length: 757 seconds
#
# Revision: 1
# Processed by: cddbd v1.5.2PL0 Copyright (c) Steve Scherf et al.
# Submitted via: ExactAudioCopy v1.1
#
DISCID=1802f303
DTITLE=Snoop Dogg - Signs (Maxi-CD)
DYEAR=2005
DGENRE=Rap
TTITLE0=Snoop Dogg (Feat. Charlie Wilson and Justin Timberlake) - Signs
TTITLE1=Snoop Dogg (Feat. Keyshia Cole and Pharrell Williams) - Let's Ge
TTITLE1=t Blown
TTITLE2=Signs (Instrumental)
EXTD=
EXTT0=
EXTT1=
EXTT2=
PLAYORDER=
